<svg width="25" height="22" viewBox="0 0 25 22" fill="none" xmlns="http://www.w3.org/2000/svg">
<g clip-path="url(#clip0_785_9764)">
<path d="M8.71244 0.0681662C9.72612 0.110141 10.7388 0.0912522 11.7514 0.0534751C11.9781 0.0450802 12.2047 0.027241 12.4303 0.0052044C12.5111 -0.00319051 12.5552 0.00415503 12.5405 0.096499C12.5384 0.108042 12.5405 0.119585 12.5405 0.131128C12.5395 0.27699 12.5856 0.448036 12.5237 0.561367C12.4587 0.680995 12.2635 0.641119 12.126 0.67155C10.9046 0.937039 9.94649 1.61283 9.18675 2.57929C7.5382 4.67487 5.90015 6.77885 4.25369 8.87652C4.17394 8.97726 4.22326 9.02553 4.27468 9.09689C6.01033 11.5262 7.74493 13.9554 9.47952 16.3847C10.0378 17.1665 10.6023 17.943 11.1501 18.7311C11.7472 19.5916 12.5531 20.1425 13.5615 20.4017C13.6686 20.429 13.7053 20.4688 13.6969 20.5759C13.6854 20.7259 13.741 20.9201 13.6665 21.0135C13.5951 21.1027 13.3957 21.0156 13.253 21.0093C12.019 20.9526 10.7849 20.9474 9.54983 20.9568C8.7817 20.962 8.01356 20.9799 7.24753 21.0386C7.10167 21.0502 7.03136 21.0282 7.0534 20.8613C7.07124 20.7301 7.01457 20.5601 7.07858 20.4709C7.14574 20.3775 7.32728 20.4258 7.4574 20.4059C7.69246 20.3692 7.92961 20.3324 8.14473 20.2233C8.41022 20.089 8.48893 19.9001 8.39763 19.6168C8.34516 19.4552 8.26226 19.3093 8.16887 19.1676C6.65779 16.8895 5.14565 14.6113 3.63352 12.3342C3.39532 11.9753 3.13507 11.6332 2.84965 11.3079C2.38268 10.7759 1.79294 10.5041 1.09616 10.4453C0.951348 10.4338 0.806536 10.4159 0.660674 10.4117C0.579873 10.4096 0.55259 10.3897 0.547343 10.3037C0.51901 9.81256 0.516912 9.81571 0.993323 9.77688C2.19065 9.68139 3.19803 9.18084 3.95148 8.25425C5.10578 6.83656 6.23699 5.39998 7.33882 3.94032C7.6998 3.46181 8.01881 2.95497 8.24967 2.39775C8.33677 2.18788 8.40498 1.97171 8.41547 1.7419C8.43541 1.31061 8.25072 1.0042 7.85616 0.825807C7.52141 0.674698 7.16568 0.620131 6.8026 0.613835C6.63995 0.610687 6.57489 0.571861 6.58328 0.388222C6.60112 -0.0199803 6.58853 -0.0105361 7.00093 0.00940185C7.57178 0.0398334 8.14264 0.050327 8.71244 0.0681662Z" fill="black"/>
<path d="M19.2405 0.0545025C20.486 0.0545025 21.7327 0.0586999 22.9783 0.0524038C23.4379 0.050305 23.8975 0.0345646 24.3561 0.0020343C24.525 -0.0105581 24.5481 0.0335152 24.5313 0.184624C24.4306 1.08708 24.3855 1.99373 24.3551 2.90143C24.3194 3.96128 24.3435 5.01904 24.4233 6.07575C24.4348 6.22266 24.4012 6.27618 24.2533 6.25309C24.1903 6.24365 24.1252 6.251 24.0612 6.251C23.7244 6.251 23.7328 6.24995 23.695 5.90471C23.589 4.9267 23.4453 3.95604 23.1808 3.00531C22.8177 1.69781 21.951 0.985288 20.6246 0.794304C20.1219 0.721898 19.6182 0.684121 19.1114 0.690417C17.6664 0.709305 16.2225 0.659985 14.7786 0.654738C14.5288 0.653689 14.277 0.645294 14.0293 0.68517C13.9433 0.698812 13.9086 0.686219 13.9055 0.583382C13.8887 0.0891315 13.8845 0.0891315 14.3808 0.0891315C16.0011 0.0891315 17.6202 0.0891315 19.2405 0.0891315C19.2405 0.0775885 19.2405 0.0660455 19.2405 0.0545025Z" fill="black"/>
<path d="M15.78 10.4475C16.3099 10.4475 16.8409 10.4653 17.3697 10.4422C17.9217 10.4181 18.4485 10.2817 18.8242 9.83569C19.2103 9.37711 19.4296 8.83459 19.5314 8.2459C19.6196 7.73066 19.7004 7.21332 19.7822 6.69599C19.799 6.5879 19.8242 6.51655 19.9648 6.53334C20.1369 6.55327 20.3688 6.47982 20.4696 6.56797C20.5735 6.65821 20.4832 6.89432 20.4696 7.06431C20.3562 8.48935 20.4119 9.91544 20.4181 11.3415C20.4234 12.499 20.4937 13.6554 20.585 14.8086C20.5965 14.9492 20.5672 15.0101 20.4139 14.9912C20.2933 14.9765 20.1694 14.9807 20.0477 14.9902C19.926 15.0007 19.8956 14.9524 19.8798 14.8359C19.7875 14.1444 19.7046 13.4518 19.5356 12.7729C19.4853 12.5693 19.3992 12.3793 19.3048 12.1926C18.9228 11.436 18.2712 11.1159 17.4621 11.0802C16.3687 11.0309 15.2731 11.0666 14.1786 11.0645C14.0254 11.0645 13.9824 11.0299 13.9866 10.8735C13.9981 10.4538 13.9898 10.4538 14.4168 10.4538C14.8712 10.4538 15.3256 10.4538 15.78 10.4538C15.78 10.4506 15.78 10.4485 15.78 10.4475Z" fill="black"/>
</g>
<defs>
<clipPath id="clip0_785_9764">
<rect width="24" height="21.0555" fill="white" transform="translate(0.539062)"/>
</clipPath>
</defs>
</svg>
